<?xml version="1.0" encoding="UTF-8"?>
<!DOCTYPE svg PUBLIC "-//W3C//DTD SVG 1.1//EN" "http://www.w3.org/Graphics/SVG/1.1/DTD/svg11.dtd">
<svg xmlns="http://www.w3.org/2000/svg" version="1.1" width="1661px" height="1697px" style="shape-rendering:geometricPrecision; text-rendering:geometricPrecision; image-rendering:optimizeQuality; fill-rule:evenodd; clip-rule:evenodd" xmlns:xlink="http://www.w3.org/1999/xlink">
<g><path style="opacity:0.995" fill="#fefefe" d="M 842.5,-0.5 C 845.167,-0.5 847.833,-0.5 850.5,-0.5C 876.564,6.53178 900.23,18.3651 921.5,35C 938.5,48.8333 955.5,62.6667 972.5,76.5C 985.333,97.5 998.167,118.5 1011,139.5C 1011.33,139.167 1011.67,138.833 1012,138.5C 1017.14,152.246 1022.47,165.912 1028,179.5C 1070.53,152.433 1117.03,136.933 1167.5,133C 1217.36,131.13 1264.02,142.464 1307.5,167C 1325.01,176.916 1342.01,187.583 1358.5,199C 1390.6,223.096 1417.1,252.263 1438,286.5C 1454.45,321.402 1471.45,356.069 1489,390.5C 1490,391.5 1491,392.5 1492,393.5C 1509,426.5 1526,459.5 1543,492.5C 1570.06,550.278 1597.39,607.944 1625,665.5C 1645.8,710.379 1657.64,757.379 1660.5,806.5C 1660.5,814.833 1660.5,823.167 1660.5,831.5C 1658.42,893.82 1635.42,946.986 1591.5,991C 1561.55,1009.97 1531.88,1029.3 1502.5,1049C 1512.2,1068.9 1522.03,1088.73 1532,1108.5C 1537,1132.83 1542,1157.17 1547,1181.5C 1553.09,1235.51 1545.76,1287.51 1525,1337.5C 1505.52,1380.63 1476.35,1415.46 1437.5,1442C 1412.5,1459 1387.5,1476 1362.5,1493C 1286.47,1530.34 1211.14,1568.68 1136.5,1608C 1067.91,1642.98 996.246,1670.31 921.5,1690C 908.111,1692.73 894.778,1694.9 881.5,1696.5C 867.833,1696.5 854.167,1696.5 840.5,1696.5C 780.131,1689.95 730.631,1663.29 692,1616.5C 685.28,1608.11 678.947,1599.45 673,1590.5C 660.333,1565.83 647.667,1541.17 635,1516.5C 600.42,1540.81 561.92,1554.64 519.5,1558C 461.154,1562.41 406.487,1550.41 355.5,1522C 350.481,1519.16 345.814,1515.82 341.5,1512C 318.796,1491.63 295.796,1471.63 272.5,1452C 249.333,1420.83 226.167,1389.67 203,1358.5C 184.51,1321.52 165.51,1284.85 146,1248.5C 104.667,1160.5 63.3333,1072.5 22,984.5C 10.4502,955.716 2.95017,926.049 -0.5,895.5C -0.5,882.167 -0.5,868.833 -0.5,855.5C 6.84787,768.583 48.8479,704.75 125.5,664C 137.073,658.203 148.74,652.703 160.5,647.5C 140.187,619.528 126.353,588.528 119,554.5C 114.345,518.967 111.679,483.3 111,447.5C 113.758,404.887 127.425,366.22 152,331.5C 159.289,321.876 166.955,312.542 175,303.5C 202.833,278.333 230.667,253.167 258.5,228C 295.167,206 331.833,184 368.5,162C 431.517,131.491 494.183,100.491 556.5,69C 614.811,42.784 674.811,21.1173 736.5,4C 772.005,2.77846 807.338,1.27846 842.5,-0.5 Z"/></g>
<g><path style="opacity:1" fill="#e3f8e3" d="M 817.5,96.5 C 797.424,94.8457 777.424,95.5124 757.5,98.5C 757.611,97.8826 757.944,97.3826 758.5,97C 776.708,94.5419 795.041,93.8752 813.5,95C 815.058,95.21 816.391,95.71 817.5,96.5 Z"/></g>
<g><path style="opacity:1" fill="#016600" d="M 817.5,96.5 C 834.499,99.223 850.166,105.39 864.5,115C 882.039,134.203 899.205,153.703 916,173.5C 922.307,182.139 927.307,191.472 931,201.5C 936.757,217.866 941.257,234.533 944.5,251.5C 944.5,252.833 944.5,254.167 944.5,255.5C 945.555,267.127 946.721,278.794 948,290.5C 948.168,314.004 948.668,337.337 949.5,360.5C 948.31,381.812 947.644,403.145 947.5,424.5C 946.347,430.653 946.18,436.986 947,443.5C 947.791,442.255 948.291,440.922 948.5,439.5C 950.588,437.664 951.921,435.331 952.5,432.5C 970.469,400.568 988.969,368.901 1008,337.5C 1015,326.5 1022,315.5 1029,304.5C 1050.07,276.774 1076.91,256.607 1109.5,244C 1116.69,241.536 1124.02,239.703 1131.5,238.5C 1150.41,236.023 1169.41,235.023 1188.5,235.5C 1255.96,242.835 1309.13,274.168 1348,329.5C 1393.19,396.556 1426.52,469.223 1448,547.5C 1475.55,591.258 1500.55,636.591 1523,683.5C 1535.26,710.694 1545.26,738.694 1553,767.5C 1560.78,798.362 1561.45,829.362 1555,860.5C 1550.83,873.169 1544.83,884.836 1537,895.5C 1524.94,907.729 1512.77,919.729 1500.5,931.5C 1491.27,934.462 1482.27,937.796 1473.5,941.5C 1443.45,951.963 1413.45,962.629 1383.5,973.5C 1369.69,974.409 1355.86,975.075 1342,975.5C 1309.16,974.511 1276.33,973.511 1243.5,972.5C 1238.55,971.441 1233.55,971.274 1228.5,972C 1275.56,999.035 1322.56,1026.37 1369.5,1054C 1410.36,1081.27 1437.36,1118.43 1450.5,1165.5C 1453.82,1193.34 1452.82,1221 1447.5,1248.5C 1440.53,1277.11 1427.69,1302.78 1409,1325.5C 1374.19,1364.66 1333.35,1395.82 1286.5,1419C 1239.36,1443.04 1190.7,1463.38 1140.5,1480C 1091.21,1511.31 1039.87,1538.98 986.5,1563C 972.216,1568.32 957.882,1573.49 943.5,1578.5C 934.058,1581.19 924.724,1583.86 915.5,1586.5C 910.883,1587.49 906.216,1588.15 901.5,1588.5C 898.166,1588.79 895,1588.79 892,1588.5C 890.941,1588.63 890.108,1589.13 889.5,1590C 873.167,1590.67 856.833,1590.67 840.5,1590C 834.34,1588.01 828.006,1586.51 821.5,1585.5C 812.395,1582.95 804.061,1578.78 796.5,1573C 778.667,1553.83 760.833,1534.67 743,1515.5C 727.467,1487.03 717.967,1456.7 714.5,1424.5C 712.996,1390.62 711.996,1356.62 711.5,1322.5C 711.578,1315.49 711.911,1308.49 712.5,1301.5C 714.254,1282.35 714.754,1263.02 714,1243.5C 712.295,1245.58 711.128,1247.91 710.5,1250.5C 685.188,1293.11 660.355,1336.11 636,1379.5C 612.342,1416.08 579.508,1440.08 537.5,1451.5C 509.887,1457.71 482.221,1458.04 454.5,1452.5C 431.875,1446.69 411.208,1436.85 392.5,1423C 349.283,1391.12 313.783,1352.29 286,1306.5C 258.95,1254.01 232.283,1201.34 206,1148.5C 174.652,1081.1 143.318,1013.76 112,946.5C 104.576,927.878 100.409,908.545 99.5,888.5C 98.5502,872.595 99.8835,856.929 103.5,841.5C 111.624,807.083 130.291,779.917 159.5,760C 173.34,751.08 188.007,743.746 203.5,738C 228.24,729.153 253.573,722.653 279.5,718.5C 291.085,717.408 302.752,716.241 314.5,715C 340.165,714.5 365.831,714.333 391.5,714.5C 395.5,714.5 399.5,714.5 403.5,714.5C 412.576,715.583 421.743,716.917 431,718.5C 431.833,718.333 432.667,718.167 433.5,718C 430.273,715.888 426.94,714.055 423.5,712.5C 384.392,689.774 345.059,667.274 305.5,645C 286.227,632.736 268.394,618.569 252,602.5C 230.649,579.803 216.649,553.137 210,522.5C 209.75,512.5 209.916,502.5 210.5,492.5C 212.366,475.018 213.866,457.352 215,439.5C 215.857,433.099 217.024,426.766 218.5,420.5C 230.816,386.717 250.483,357.883 277.5,334C 315.598,300.76 357.931,273.76 404.5,253C 442.327,235.75 480.993,220.75 520.5,208C 575.792,171.746 634.126,141.079 695.5,116C 715.73,108.646 736.397,102.813 757.5,98.5C 777.424,95.5124 797.424,94.8457 817.5,96.5 Z"/></g>
<g><path style="opacity:1" fill="#01b301" d="M 902.5,249.5 C 902.66,251.199 902.494,252.866 902,254.5C 894.539,241.064 885.039,229.564 873.5,220C 868.349,217.145 863.349,214.145 858.5,211C 834.145,202.927 809.145,200.261 783.5,203C 770.033,204.228 756.7,206.228 743.5,209C 694.114,212.503 644.78,216.503 595.5,221C 589.5,221.667 583.5,221.667 577.5,221C 578.056,220.617 578.389,220.117 578.5,219.5C 621.362,192.57 666.696,170.07 714.5,152C 731.797,145.926 749.463,141.259 767.5,138C 784.895,135.669 802.229,136.003 819.5,139C 825.338,140.542 831.005,142.542 836.5,145C 844.309,152.477 851.809,160.311 859,168.5C 867.958,179.794 877.291,190.794 887,201.5C 894.465,216.728 899.631,232.728 902.5,249.5 Z"/></g>
<g><path style="opacity:1" fill="#009900" d="M 902.5,249.5 C 904.04,251.838 904.706,254.505 904.5,257.5C 905.468,268.842 906.634,280.175 908,291.5C 908.195,308.192 908.695,324.858 909.5,341.5C 907.293,378.123 905.96,414.79 905.5,451.5C 904.606,478.165 904.106,504.832 904,531.5C 910.757,545.65 921.257,549.15 935.5,542C 939.612,537.609 943.112,532.776 946,527.5C 957.383,506.724 968.716,486.058 980,465.5C 990.536,447.759 1000.54,429.759 1010,411.5C 1018.75,395.665 1028.25,380.332 1038.5,365.5C 1038.47,366.497 1038.97,367.164 1040,367.5C 1065.76,358.972 1092.26,355.305 1119.5,356.5C 1142.92,357.232 1166.26,358.399 1189.5,360C 1196.22,362.7 1202.89,365.366 1209.5,368C 1220.54,373.179 1230.54,379.846 1239.5,388C 1250.15,395.002 1260.15,402.668 1269.5,411C 1274.02,413.17 1278.02,416.17 1281.5,420C 1286.97,423.312 1292.31,426.812 1297.5,430.5C 1313.05,443.868 1329.39,456.368 1346.5,468C 1357.89,478.306 1368.73,489.14 1379,500.5C 1384.62,510.062 1390.95,519.062 1398,527.5C 1398.02,525.203 1397.85,522.869 1397.5,520.5C 1402.54,533.794 1406.71,547.461 1410,561.5C 1412.02,565.66 1414.19,569.66 1416.5,573.5C 1415.54,573.047 1414.71,572.381 1414,571.5C 1412.67,612.841 1417.01,653.507 1427,693.5C 1432.55,730.332 1438.88,766.998 1446,803.5C 1448.86,833.036 1442.53,860.036 1427,884.5C 1426.07,886.459 1425.24,888.459 1424.5,890.5C 1414.65,900.183 1404.65,909.683 1394.5,919C 1388.49,922.338 1382.82,926.172 1377.5,930.5C 1375.02,931.88 1375.02,932.88 1377.5,933.5C 1371.69,934.49 1365.69,934.823 1359.5,934.5C 1327.5,933.652 1295.5,932.985 1263.5,932.5C 1222.5,931.033 1181.5,929.866 1140.5,929C 1127.53,936.035 1124.36,946.202 1131,959.5C 1132.83,961.333 1134.67,963.167 1136.5,965C 1183.05,991.925 1229.38,1018.76 1275.5,1045.5C 1274.96,1045.56 1274.62,1045.89 1274.5,1046.5C 1281.36,1054.95 1288.2,1063.28 1295,1071.5C 1295.23,1074.06 1296.56,1075.73 1299,1076.5C 1303.46,1086.54 1307.13,1096.87 1310,1107.5C 1322.71,1124.27 1331.71,1142.93 1337,1163.5C 1337.67,1165.17 1337.67,1166.83 1337,1168.5C 1332.39,1178.09 1327.39,1187.43 1322,1196.5C 1316.97,1211.28 1311.64,1225.95 1306,1240.5C 1296.89,1252.43 1287.55,1264.09 1278,1275.5C 1268.04,1287.13 1257.7,1298.47 1247,1309.5C 1217.87,1340.3 1185.7,1367.47 1150.5,1391C 1125.77,1405.07 1100.77,1418.41 1075.5,1431C 1054.86,1438.99 1034.19,1446.99 1013.5,1455C 996.576,1460.77 979.242,1465.44 961.5,1469C 923.657,1475.32 886.324,1473.32 849.5,1463C 831.315,1456.57 813.648,1449.07 796.5,1440.5C 777.242,1420.36 764.075,1396.7 757,1369.5C 755.494,1360.77 753.828,1352.11 752,1343.5C 751.5,1358.16 751.333,1372.83 751.5,1387.5C 750.339,1372.34 750.172,1357.01 751,1341.5C 753.75,1279.85 755.75,1218.18 757,1156.5C 751.565,1144.7 742.398,1140.2 729.5,1143C 725.592,1145.03 722.425,1147.87 720,1151.5C 680.063,1223.4 638.896,1294.73 596.5,1365.5C 596.5,1364.5 596.5,1363.5 596.5,1362.5C 560.026,1357.44 524.026,1349.94 488.5,1340C 469.139,1333.81 450.139,1326.81 431.5,1319C 418.293,1312.3 405.293,1305.3 392.5,1298C 384.047,1291.19 375.381,1284.86 366.5,1279C 360.667,1273.17 354.833,1267.33 349,1261.5C 340.351,1250.9 331.684,1240.23 323,1229.5C 310.382,1215.71 297.716,1201.71 285,1187.5C 279.292,1179.77 272.959,1172.43 266,1165.5C 246.718,1138.47 234.051,1108.47 228,1075.5C 226.344,1030.95 220.677,986.955 211,943.5C 205.348,923.567 199.681,903.567 194,883.5C 191.384,867.702 194.718,853.369 204,840.5C 206.915,837.373 209.582,834.04 212,830.5C 236.792,807.018 265.292,789.518 297.5,778C 302.648,774.951 307.981,772.285 313.5,770C 327.364,764.43 341.364,759.43 355.5,755C 355.833,754.667 356.167,754.333 356.5,754C 348.841,753.5 341.174,753.334 333.5,753.5C 354.675,752.449 376.008,752.616 397.5,754C 406.982,754.547 416.316,755.88 425.5,758C 456.825,759.289 488.158,759.622 519.5,759C 532.505,752.853 536.338,743.02 531,729.5C 527.749,725.578 523.916,722.412 519.5,720C 456.016,684.604 393.016,648.77 330.5,612.5C 331.124,612.083 331.457,611.416 331.5,610.5C 325.839,577.537 320.506,544.537 315.5,511.5C 318.819,499.894 321.985,488.228 325,476.5C 384.35,403.656 443.85,330.989 503.5,258.5C 502.311,257.571 500.978,257.238 499.5,257.5C 512.162,252.334 525.162,247.834 538.5,244C 551.722,235.56 565.055,227.394 578.5,219.5C 578.389,220.117 578.056,220.617 577.5,221C 583.5,221.667 589.5,221.667 595.5,221C 644.78,216.503 694.114,212.503 743.5,209C 756.7,206.228 770.033,204.228 783.5,203C 809.145,200.261 834.145,202.927 858.5,211C 863.349,214.145 868.349,217.145 873.5,220C 885.039,229.564 894.539,241.064 902,254.5C 902.494,252.866 902.66,251.199 902.5,249.5 Z"/></g>
<g><path style="opacity:1" fill="#e1f8e1" d="M 1188.5,234.5 C 1172.1,234.051 1155.76,234.718 1139.5,236.5C 1139.61,235.883 1139.94,235.383 1140.5,235C 1155.39,232.607 1170.39,231.94 1185.5,233C 1186.74,233.232 1187.74,233.732 1188.5,234.5 Z"/></g>
<g><path style="opacity:1" fill="#20691d" d="M 1188.5,234.5 C 1188.5,234.833 1188.5,235.167 1188.5,235.5C 1169.41,235.023 1150.41,236.023 1131.5,238.5C 1133.91,237.232 1136.57,236.565 1139.5,236.5C 1155.76,234.718 1172.1,234.051 1188.5,234.5 Z"/></g>
<g><path style="opacity:1" fill="#01b301" d="M 499.5,257.5 C 500.978,257.238 502.311,257.571 503.5,258.5C 443.85,330.989 384.35,403.656 325,476.5C 321.985,488.228 318.819,499.894 315.5,511.5C 320.506,544.537 325.839,577.537 331.5,610.5C 331.457,611.416 331.124,612.083 330.5,612.5C 294.411,593.913 268.578,565.913 253,528.5C 250.917,523.346 249.751,518.013 249.5,512.5C 251.466,488.175 253.299,463.841 255,439.5C 262.402,418.018 273.402,398.685 288,381.5C 314.402,353.747 344.235,330.58 377.5,312C 416.592,290.287 457.258,272.12 499.5,257.5 Z"/></g>
<g><path style="opacity:1" fill="#dbf2da" d="M 944.5,251.5 C 947.991,259.697 949.325,268.364 948.5,277.5C 947.493,270.112 946.16,262.779 944.5,255.5C 944.5,254.167 944.5,252.833 944.5,251.5 Z"/></g>
<g><path style="opacity:1" fill="#01b301" d="M 1397.5,520.5 C 1397.85,522.869 1398.02,525.203 1398,527.5C 1390.95,519.062 1384.62,510.062 1379,500.5C 1368.73,489.14 1357.89,478.306 1346.5,468C 1329.39,456.368 1313.05,443.868 1297.5,430.5C 1292.31,426.812 1286.97,423.312 1281.5,420C 1278.02,416.17 1274.02,413.17 1269.5,411C 1260.15,402.668 1250.15,395.002 1239.5,388C 1230.54,379.846 1220.54,373.179 1209.5,368C 1202.89,365.366 1196.22,362.7 1189.5,360C 1166.26,358.399 1142.92,357.232 1119.5,356.5C 1092.26,355.305 1065.76,358.972 1040,367.5C 1038.97,367.164 1038.47,366.497 1038.5,365.5C 1045.35,353.136 1052.85,341.136 1061,329.5C 1062.61,326.618 1063.94,323.618 1065,320.5C 1074.21,312.289 1083.71,304.456 1093.5,297C 1128.29,274.813 1165.95,268.48 1206.5,278C 1251.63,289.465 1287.79,313.965 1315,351.5C 1350.41,403.851 1377.91,460.184 1397.5,520.5 Z"/></g>
<g><path style="opacity:1" fill="#266c21" d="M 944.5,255.5 C 946.16,262.779 947.493,270.112 948.5,277.5C 949.498,287.807 950.165,298.14 950.5,308.5C 950.654,325.847 950.321,343.18 949.5,360.5C 948.668,337.337 948.168,314.004 948,290.5C 946.721,278.794 945.555,267.127 944.5,255.5 Z"/></g>
<g><path style="opacity:1" fill="#058e05" d="M 904.5,257.5 C 906.804,267.239 908.304,277.239 909,287.5C 909.925,300.984 910.425,314.484 910.5,328C 909.02,369.333 907.353,410.499 905.5,451.5C 905.96,414.79 907.293,378.123 909.5,341.5C 908.695,324.858 908.195,308.192 908,291.5C 906.634,280.175 905.468,268.842 904.5,257.5 Z"/></g>
<g><path style="opacity:1" fill="#e1f6e2" d="M 950.5,308.5 C 951.451,345.533 950.784,382.7 948.5,420C 948.833,425.167 949.167,430.333 949.5,435.5C 950.141,434.007 951.141,433.007 952.5,432.5C 951.921,435.331 950.588,437.664 948.5,439.5C 947.513,434.695 947.179,429.695 947.5,424.5C 947.644,403.145 948.31,381.812 949.5,360.5C 950.321,343.18 950.654,325.847 950.5,308.5 Z"/></g>
<g><path style="opacity:1" fill="#a8e1a8" d="M 947.5,424.5 C 947.179,429.695 947.513,434.695 948.5,439.5C 948.291,440.922 947.791,442.255 947,443.5C 946.18,436.986 946.347,430.653 947.5,424.5 Z"/></g>
<g><path style="opacity:1" fill="#e4f7e5" d="M 218.5,420.5 C 217.024,426.766 215.857,433.099 215,439.5C 213.866,457.352 212.366,475.018 210.5,492.5C 210.982,475.258 211.982,458.091 213.5,441C 213.167,440.667 212.833,440.333 212.5,440C 213.954,434.55 215.288,429.05 216.5,423.5C 216.64,421.97 217.307,420.97 218.5,420.5 Z"/></g>
<g><path style="opacity:1" fill="#038f01" d="M 661.5,447.5 C 662.552,447.351 663.552,447.517 664.5,448C 685.293,467.445 703.46,488.945 719,512.5C 726.415,524.921 733.415,537.588 740,550.5C 746.333,556.5 752.667,562.5 759,568.5C 762.081,578.649 764.415,588.983 766,599.5C 767.147,601.731 768.147,604.065 769,606.5C 874.63,672.396 988.796,695.229 1111.5,675C 1142.19,669.671 1172.19,662.004 1201.5,652C 1203.58,651.192 1205.58,651.359 1207.5,652.5C 1173.95,686.929 1136.62,716.095 1095.5,740C 1090.17,743.667 1084.83,747.333 1079.5,751C 1058.17,762 1036.83,773 1015.5,784C 1010.43,787.527 1005.43,791.194 1000.5,795C 991.819,799.11 983.486,803.776 975.5,809C 974.299,809.903 973.465,811.069 973,812.5C 947.957,883.864 938.957,957.53 946,1033.5C 948.275,1048.46 950.275,1063.46 952,1078.5C 957.568,1107.55 964.235,1136.22 972,1164.5C 962.366,1147.52 952.699,1130.52 943,1113.5C 920.55,1077.57 893.717,1045.57 862.5,1017.5C 819.688,981.047 770.355,958.547 714.5,950C 666.059,945.422 618.392,949.422 571.5,962C 552.983,967.535 534.65,973.535 516.5,980C 501.44,986.534 486.44,993.034 471.5,999.5C 470.833,999.333 470.167,999.167 469.5,999C 474.268,992.158 480.268,986.991 487.5,983.5C 495.916,973.923 505.249,965.09 515.5,957C 549.892,924.852 584.726,893.019 620,861.5C 664.391,768.159 683.557,669.659 677.5,566C 675.72,526.135 670.387,486.635 661.5,447.5 Z"/></g>
<g><path style="opacity:1" fill="#01b301" d="M 1416.5,573.5 C 1450.7,624.552 1479.2,678.885 1502,736.5C 1506.95,749.523 1510.79,762.856 1513.5,776.5C 1515.72,793.098 1517.38,809.765 1518.5,826.5C 1518.57,840.305 1515.41,853.305 1509,865.5C 1499.2,876.304 1489.03,886.804 1478.5,897C 1444.79,909.069 1411.13,921.235 1377.5,933.5C 1375.02,932.88 1375.02,931.88 1377.5,930.5C 1382.82,926.172 1388.49,922.338 1394.5,919C 1404.65,909.683 1414.65,900.183 1424.5,890.5C 1425.24,888.459 1426.07,886.459 1427,884.5C 1442.53,860.036 1448.86,833.036 1446,803.5C 1438.88,766.998 1432.55,730.332 1427,693.5C 1417.01,653.507 1412.67,612.841 1414,571.5C 1414.71,572.381 1415.54,573.047 1416.5,573.5 Z"/></g>
<g><path style="opacity:1" fill="#028300" d="M 720.5,647.5 C 760.631,685.129 800.631,722.962 840.5,761C 842.833,761.667 845.167,761.667 847.5,761C 908.611,749.78 969.944,739.447 1031.5,730C 1004.09,739.37 978.756,752.37 955.5,769C 909.196,805.009 885.862,852.509 885.5,911.5C 886.611,932.274 888.445,952.94 891,973.5C 868.291,947.77 845.791,921.604 823.5,895C 770.171,897.333 716.837,899.999 663.5,903C 654.814,903.832 646.147,903.665 637.5,902.5C 666.241,876.6 694.908,850.434 723.5,824C 724.5,823.667 725.5,823.333 726.5,823C 736.536,813.963 746.202,804.629 755.5,795C 752.506,778.534 749.672,762.034 747,745.5C 737.637,713.005 728.804,680.338 720.5,647.5 Z"/></g>
<g><path style="opacity:1" fill="#e3f8e3" d="M 378.5,712.5 C 387.234,711.865 395.567,712.532 403.5,714.5C 399.5,714.5 395.5,714.5 391.5,714.5C 387.167,713.833 382.833,713.167 378.5,712.5 Z"/></g>
<g><path style="opacity:1" fill="#276e24" d="M 378.5,712.5 C 382.833,713.167 387.167,713.833 391.5,714.5C 365.831,714.333 340.165,714.5 314.5,715C 302.752,716.241 291.085,717.408 279.5,718.5C 312.127,713.22 345.127,711.22 378.5,712.5 Z"/></g>
<g><path style="opacity:1" fill="#c7eac7" d="M 423.5,712.5 C 426.94,714.055 430.273,715.888 433.5,718C 432.667,718.167 431.833,718.333 431,718.5C 421.743,716.917 412.576,715.583 403.5,714.5C 410.584,715.126 417.25,714.459 423.5,712.5 Z"/></g>
<g><path style="opacity:1" fill="#06a106" d="M 1513.5,776.5 C 1518.08,792.925 1519.74,809.591 1518.5,826.5C 1517.38,809.765 1515.72,793.098 1513.5,776.5 Z"/></g>
<g><path style="opacity:1" fill="#def3de" d="M 103.5,841.5 C 99.8835,856.929 98.5502,872.595 99.5,888.5C 97.7272,873.322 98.3938,858.156 101.5,843C 101.836,841.97 102.503,841.47 103.5,841.5 Z"/></g>
<g><path style="opacity:1" fill="#048b04" d="M 1263.5,932.5 C 1295.5,932.985 1327.5,933.652 1359.5,934.5C 1358.74,935.268 1357.74,935.768 1356.5,936C 1325.32,935.742 1294.32,934.575 1263.5,932.5 Z"/></g>
<g><path style="opacity:1" fill="#e0f5df" d="M 1500.5,931.5 C 1496.5,934.169 1492.16,936.335 1487.5,938C 1482.99,939.837 1478.33,941.004 1473.5,941.5C 1482.27,937.796 1491.27,934.462 1500.5,931.5 Z"/></g>
<g><path style="opacity:1" fill="#d1ebd0" d="M 1243.5,972.5 C 1276.33,973.511 1309.16,974.511 1342,975.5C 1355.86,975.075 1369.69,974.409 1383.5,973.5C 1381.43,974.809 1378.93,975.475 1376,975.5C 1364.61,976.44 1353.27,977.44 1342,978.5C 1340.27,977.751 1338.43,977.251 1336.5,977C 1308.18,975.519 1279.85,974.519 1251.5,974C 1248.64,973.817 1245.97,973.317 1243.5,972.5 Z"/></g>
<g><path style="opacity:1" fill="#01b301" d="M 1275.5,1045.5 C 1296.63,1057.47 1317.63,1069.64 1338.5,1082C 1409.32,1126.2 1429.49,1187.37 1399,1265.5C 1383.91,1292.6 1364.41,1316.1 1340.5,1336C 1307.06,1361.73 1271.06,1383.4 1232.5,1401C 1196.42,1416.85 1159.75,1431.19 1122.5,1444C 1066.5,1480.31 1007.5,1510.98 945.5,1536C 932.869,1539.88 920.203,1543.54 907.5,1547C 886.682,1551.68 865.682,1552.68 844.5,1550C 836.883,1548.13 829.549,1545.46 822.5,1542C 806.634,1525.8 791.134,1509.3 776,1492.5C 759.959,1459.44 751.792,1424.44 751.5,1387.5C 751.333,1372.83 751.5,1358.16 752,1343.5C 753.828,1352.11 755.494,1360.77 757,1369.5C 764.075,1396.7 777.242,1420.36 796.5,1440.5C 813.648,1449.07 831.315,1456.57 849.5,1463C 886.324,1473.32 923.657,1475.32 961.5,1469C 979.242,1465.44 996.576,1460.77 1013.5,1455C 1034.19,1446.99 1054.86,1438.99 1075.5,1431C 1100.77,1418.41 1125.77,1405.07 1150.5,1391C 1185.7,1367.47 1217.87,1340.3 1247,1309.5C 1257.7,1298.47 1268.04,1287.13 1278,1275.5C 1287.55,1264.09 1296.89,1252.43 1306,1240.5C 1311.64,1225.95 1316.97,1211.28 1322,1196.5C 1327.39,1187.43 1332.39,1178.09 1337,1168.5C 1337.67,1166.83 1337.67,1165.17 1337,1163.5C 1331.71,1142.93 1322.71,1124.27 1310,1107.5C 1307.13,1096.87 1303.46,1086.54 1299,1076.5C 1296.56,1075.73 1295.23,1074.06 1295,1071.5C 1288.2,1063.28 1281.36,1054.95 1274.5,1046.5C 1274.62,1045.89 1274.96,1045.56 1275.5,1045.5 Z"/></g>
<g><path style="opacity:1" fill="#01b301" d="M 333.5,753.5 C 341.174,753.334 348.841,753.5 356.5,754C 356.167,754.333 355.833,754.667 355.5,755C 341.364,759.43 327.364,764.43 313.5,770C 307.981,772.285 302.648,774.951 297.5,778C 265.292,789.518 236.792,807.018 212,830.5C 209.582,834.04 206.915,837.373 204,840.5C 194.718,853.369 191.384,867.702 194,883.5C 199.681,903.567 205.348,923.567 211,943.5C 220.677,986.955 226.344,1030.95 228,1075.5C 234.051,1108.47 246.718,1138.47 266,1165.5C 272.959,1172.43 279.292,1179.77 285,1187.5C 297.716,1201.71 310.382,1215.71 323,1229.5C 331.684,1240.23 340.351,1250.9 349,1261.5C 354.833,1267.33 360.667,1273.17 366.5,1279C 375.381,1284.86 384.047,1291.19 392.5,1298C 405.293,1305.3 418.293,1312.3 431.5,1319C 450.139,1326.81 469.139,1333.81 488.5,1340C 524.026,1349.94 560.026,1357.44 596.5,1362.5C 596.5,1363.5 596.5,1364.5 596.5,1365.5C 571.069,1400.05 536.736,1416.71 493.5,1415.5C 464.997,1416.05 439.33,1407.89 416.5,1391C 370.959,1357.38 335.126,1315.54 309,1265.5C 287.435,1220.04 265.101,1175.04 242,1130.5C 210.7,1063.23 179.366,995.895 148,928.5C 139.328,903.392 137.328,877.725 142,851.5C 148.517,825.647 163.017,805.481 185.5,791C 202.368,780.817 220.368,773.151 239.5,768C 270.173,758.832 301.507,753.998 333.5,753.5 Z"/></g>
<g><path style="opacity:1" fill="#def4dd" d="M 1450.5,1165.5 C 1451.22,1165.92 1451.72,1166.58 1452,1167.5C 1452.06,1172.02 1452.73,1176.35 1454,1180.5C 1454.4,1192.77 1454.56,1204.94 1454.5,1217C 1453.87,1217.75 1453.37,1218.58 1453,1219.5C 1452.46,1229.48 1450.63,1239.15 1447.5,1248.5C 1452.82,1221 1453.82,1193.34 1450.5,1165.5 Z"/></g>
<g><path style="opacity:1" fill="#d8f0d7" d="M 712.5,1301.5 C 712.404,1283.8 712.571,1266.13 713,1248.5C 712.292,1249.38 711.458,1250.05 710.5,1250.5C 711.128,1247.91 712.295,1245.58 714,1243.5C 714.754,1263.02 714.254,1282.35 712.5,1301.5 Z"/></g>
<g><path style="opacity:1" fill="#136211" d="M 711.5,1322.5 C 711.996,1356.62 712.996,1390.62 714.5,1424.5C 713.745,1421.95 713.078,1419.28 712.5,1416.5C 710.4,1390.52 710.066,1364.52 711.5,1338.5C 711.5,1333.17 711.5,1327.83 711.5,1322.5 Z"/></g>
<g><path style="opacity:1" fill="#e4f8e4" d="M 711.5,1338.5 C 710.066,1364.52 710.4,1390.52 712.5,1416.5C 711.883,1416.39 711.383,1416.06 711,1415.5C 708.818,1392.55 708.151,1369.55 709,1346.5C 709.279,1343.54 710.113,1340.88 711.5,1338.5 Z"/></g>
<g><path style="opacity:1" fill="#eafbe9" d="M 537.5,1451.5 C 536.4,1452.56 535.066,1453.39 533.5,1454C 520.861,1455.83 508.194,1457.33 495.5,1458.5C 489.382,1458.09 483.382,1458.09 477.5,1458.5C 470.906,1456.99 464.239,1455.65 457.5,1454.5C 455.97,1454.36 454.97,1453.69 454.5,1452.5C 482.221,1458.04 509.887,1457.71 537.5,1451.5 Z"/></g>
<g><path style="opacity:1" fill="#daf2d9" d="M 943.5,1578.5 C 935.09,1583.7 925.757,1586.37 915.5,1586.5C 924.724,1583.86 934.058,1581.19 943.5,1578.5 Z"/></g>
<g><path style="opacity:1" fill="#1d6719" d="M 821.5,1585.5 C 828.006,1586.51 834.34,1588.01 840.5,1590C 856.833,1590.67 873.167,1590.67 889.5,1590C 890.108,1589.13 890.941,1588.63 892,1588.5C 895,1588.79 898.166,1588.79 901.5,1588.5C 895.752,1590.26 889.752,1591.42 883.5,1592C 865.644,1593.35 847.977,1592.35 830.5,1589C 827.21,1588.28 824.21,1587.11 821.5,1585.5 Z"/></g>
</svg>
